<svg aria-hidden="true" style="position: absolute; width: 0; height: 0; overflow: hidden;" version="1.1" xmlns="http://www.w3.org/2000/svg" xmlns:xlink="http://www.w3.org/1999/xlink">
<defs>
<symbol id="icon-close" viewBox="0 0 32 32">
<path stroke-linejoin="round" stroke-linecap="round" stroke-miterlimit="4" stroke-width="3.2" d="M24 8l-16 16"></path>
<path stroke-linejoin="round" stroke-linecap="round" stroke-miterlimit="4" stroke-width="3.2" d="M8 8l16 16"></path>
</symbol>
<symbol id="icon-close-min" viewBox="0 0 32 32">
<path stroke-linejoin="round" stroke-linecap="round" stroke-miterlimit="4" stroke-width="3" d="M24 8l-16 16"></path>
<path stroke-linejoin="round" stroke-linecap="round" stroke-miterlimit="4" stroke-width="3" d="M8 8l16 16"></path>
</symbol>
<symbol id="icon-outline_menu" viewBox="0 0 32 32">
<path stroke-linejoin="round" stroke-linecap="round" stroke-miterlimit="4" stroke-width="3.2" d="M5.333 8h21.333M5.333 16h10.667M5.333 24h21.333"></path>
</symbol>
<symbol id="icon-outline_menu-min" viewBox="0 0 32 32">
<path stroke-linejoin="round" stroke-linecap="round" stroke-miterlimit="4" stroke-width="3" d="M5.333 8h21.333M5.333 16h10.667M5.333 24h21.333"></path>
</symbol>
<symbol id="icon-vector" viewBox="0 0 32 32">
<path d="M29.082 0.314h-4.009c-1.237 0-2.24 0.983-2.24 2.195v3.929c0 1.212 1.003 2.195 2.24 2.195h4.009c1.237 0 2.24-0.983 2.24-2.195v-3.929c0-1.212-1.003-2.195-2.24-2.195z"></path>
<path d="M6.73 23.040h-4.318c-1.332 0-2.412 0.983-2.412 2.195v3.929c0 1.212 1.080 2.195 2.412 2.195h4.318c1.332 0 2.412-0.983 2.412-2.195v-3.929c0-1.212-1.080-2.195-2.412-2.195z"></path>
<path d="M6.25 11.582h-4.009c-1.237 0-2.24 0.983-2.24 2.195v3.929c0 1.212 1.003 2.195 2.24 2.195h4.009c1.237 0 2.24-0.983 2.24-2.195v-3.929c0-1.212-1.003-2.195-2.24-2.195z"></path>
<path d="M17.766 22.978h-4.009c-1.237 0-2.24 0.983-2.24 2.195l-0 3.929c0 1.212 1.003 2.195 2.241 2.195h4.009c1.237 0 2.24-0.983 2.24-2.195v-3.929c0-1.212-1.003-2.195-2.24-2.195z"></path>
<path d="M6.25 0.086h-4.009c-1.237 0-2.24 0.983-2.24 2.195v3.929c0 1.212 1.003 2.195 2.24 2.195h4.009c1.237 0 2.24-0.983 2.24-2.195v-3.929c0-1.212-1.003-2.195-2.24-2.195z"></path>
<path d="M18.076 11.697h-4.009c-1.237 0-2.24 0.983-2.24 2.195v3.929c0 1.212 1.003 2.195 2.24 2.195h4.009c1.237 0 2.24-0.983 2.24-2.195v-3.929c0-1.212-1.003-2.195-2.24-2.195z"></path>
<path d="M29.333 22.978h-4.009c-1.237 0-2.24 0.983-2.24 2.195v3.929c0 1.212 1.003 2.195 2.24 2.195h4.009c1.237 0 2.24-0.983 2.24-2.195v-3.929c0-1.212-1.003-2.195-2.24-2.195z"></path>
<path d="M17.591 0.224h-4.009c-1.237 0-2.24 0.983-2.24 2.195v3.929c0 1.212 1.003 2.195 2.24 2.195h4.009c1.237 0 2.24-0.984 2.24-2.196v-3.929c0-1.212-1.003-2.195-2.24-2.195z"></path>
<path d="M29.044 11.926h-4.009c-1.237 0-2.24 0.983-2.24 2.195v3.929c0 1.212 1.003 2.195 2.24 2.195h4.009c1.237 0 2.24-0.983 2.24-2.195v-3.929c0-1.212-1.003-2.195-2.24-2.195z"></path>
</symbol>
<symbol id="icon-vector-min" viewBox="0 0 32 32">
<path d="M29.082 0.314h-4.009c-1.237 0-2.24 0.983-2.24 2.195v3.929c0 1.212 1.003 2.195 2.24 2.195h4.009c1.237 0 2.24-0.983 2.24-2.195v-3.929c0-1.212-1.003-2.195-2.24-2.195z"></path>
<path d="M6.73 23.040h-4.318c-1.332 0-2.412 0.983-2.412 2.195v3.929c0 1.213 1.080 2.195 2.412 2.195h4.318c1.332 0 2.412-0.983 2.412-2.195v-3.929c0-1.212-1.080-2.195-2.412-2.195z"></path>
<path d="M6.25 11.582h-4.009c-1.237 0-2.24 0.983-2.24 2.195v3.929c0 1.212 1.003 2.195 2.24 2.195h4.009c1.237 0 2.24-0.983 2.24-2.195v-3.929c0-1.212-1.003-2.195-2.24-2.195z"></path>
<path d="M17.766 22.978h-4.009c-1.237 0-2.24 0.983-2.24 2.195l-0 3.929c0 1.212 1.003 2.195 2.241 2.195h4.009c1.237 0 2.24-0.983 2.24-2.195v-3.929c0-1.213-1.003-2.195-2.24-2.195z"></path>
<path d="M6.25 0.086h-4.009c-1.237 0-2.24 0.983-2.24 2.195v3.929c0 1.212 1.003 2.195 2.24 2.195h4.009c1.237 0 2.24-0.983 2.24-2.195v-3.929c0-1.212-1.003-2.195-2.24-2.195z"></path>
<path d="M18.076 11.697h-4.009c-1.237 0-2.24 0.983-2.24 2.195v3.929c0 1.212 1.003 2.195 2.24 2.195h4.009c1.237 0 2.24-0.983 2.24-2.195v-3.929c0-1.212-1.003-2.195-2.24-2.195z"></path>
<path d="M29.333 22.978h-4.010c-1.237 0-2.24 0.983-2.24 2.195v3.929c0 1.212 1.003 2.195 2.24 2.195h4.009c1.237 0 2.24-0.983 2.24-2.195v-3.929c0-1.213-1.003-2.195-2.24-2.195z"></path>
<path d="M17.591 0.224h-4.009c-1.237 0-2.24 0.983-2.24 2.195v3.929c0 1.212 1.003 2.195 2.24 2.195h4.009c1.237 0 2.24-0.984 2.24-2.196v-3.929c0-1.212-1.003-2.195-2.24-2.195z"></path>
<path d="M29.044 11.926h-4.010c-1.237 0-2.24 0.983-2.24 2.195v3.929c0 1.212 1.003 2.195 2.24 2.195h4.009c1.237 0 2.24-0.983 2.24-2.195v-3.929c0-1.212-1.003-2.195-2.24-2.195z"></path>
</symbol>
<symbol id="icon-header-text" viewBox="0 0 395 32">
<path fill="#fbfbfb" style="fill: var(--color1, #fbfbfb)" d="M16.803 32c-10.101 0-16.803-6.272-16.803-16.043 0-9.557 6.606-15.957 16.563-15.957 8.377 0 14.265 4.395 15.127 11.008h-6.941c-0.67-3.797-3.878-5.931-8.186-5.931-6.032 0-9.622 4.352-9.622 10.88 0 7.168 4.021 10.965 9.861 10.965 5.074 0 8.329-2.56 8.665-6.4v-0.427h-9.335v-4.779h15.797v3.925c-0.287 7.637-6.319 12.757-15.127 12.757z"></path>
<path fill="#fbfbfb" style="fill: var(--color1, #fbfbfb)" d="M36.115 31.573v-31.147h16.802c8.569 0 11.968 3.712 11.968 9.088 0 4.821-3.83 7.125-8.282 7.68v0.128c2.872 0.64 4.165 2.048 5.362 4.821 1.532 3.499 1.771 7.68 3.734 9.173v0.256h-7.659c-1.627-1.451-2.010-6.016-2.872-8.789-0.862-2.859-2.729-3.2-6.223-3.2h-6.127v11.989h-6.702zM42.817 14.635h9.383c3.925 0 5.744-2.048 5.744-4.693 0-2.901-2.25-4.565-5.744-4.565h-9.383v9.259z"></path>
<path fill="#fbfbfb" style="fill: var(--color1, #fbfbfb)" d="M69.336 31.573v-31.147h23.887v4.949h-17.186v7.424h15.51v4.949h-15.51v8.747h17.425v5.077h-24.127z"></path>
<path fill="#fbfbfb" style="fill: var(--color1, #fbfbfb)" d="M98.116 31.573v-31.147h23.887v4.949h-17.186v7.424h15.51v4.949h-15.51v8.747h17.425v5.077h-24.127z"></path>
<path fill="#fbfbfb" style="fill: var(--color1, #fbfbfb)" d="M126.897 31.573v-31.147h8.138l11.585 17.195c3.542 5.205 3.973 6.912 3.973 6.912h0.143l-0.096-24.107h6.702v31.147h-8.186l-12.015-17.707c-2.729-4.011-3.447-6.443-3.447-6.443h-0.096v24.149h-6.702z"></path>
<path fill="#fbfbfb" style="fill: var(--color1, #fbfbfb)" d="M162.384 31.573v-6.315h6.989v6.315h-6.989z"></path>
<path fill="#fbfbfb" style="fill: var(--color1, #fbfbfb)" d="M174.406 31.573v-31.147h6.702v12.459h16.037v-12.459h6.702v31.147h-6.702v-13.739h-16.037v13.739h-6.702z"></path>
<path fill="#fbfbfb" style="fill: var(--color1, #fbfbfb)" d="M206.711 31.573l13.404-31.147h7.276l13.595 31.147h-7.181l-2.824-7.168h-14.505l-2.824 7.168h-6.941zM218.391 19.456h10.675l-3.111-7.68c-2.154-5.675-2.202-6.699-2.202-6.699h-0.096c0 0 0 1.024-2.154 6.699l-3.111 7.68z"></path>
<path fill="#fbfbfb" style="fill: var(--color1, #fbfbfb)" d="M243.841 31.573v-31.147h16.803c8.57 0 11.967 3.712 11.967 9.088 0 4.821-3.829 7.125-8.281 7.68v0.128c2.873 0.64 4.164 2.048 5.361 4.821 1.533 3.499 1.771 7.68 3.733 9.173v0.256h-7.658c-1.627-1.451-2.010-6.016-2.872-8.789-0.862-2.859-2.729-3.2-6.223-3.2h-6.127v11.989h-6.702zM250.543 14.635h9.382c3.926 0 5.745-2.048 5.745-4.693 0-2.901-2.25-4.565-5.745-4.565h-9.382v9.259z"></path>
<path fill="#fbfbfb" style="fill: var(--color1, #fbfbfb)" d="M284.168 31.573l-12.829-31.147h7.181c0 0 6.941 17.451 7.659 19.584 1.149 3.413 1.675 5.163 1.675 5.163h0.096c-0.048 0 0.48-1.749 1.675-5.163 0.768-2.133 7.421-19.584 7.421-19.584h6.941l-12.352 31.147h-7.467z"></path>
<path fill="#fbfbfb" style="fill: var(--color1, #fbfbfb)" d="M306.731 31.573v-31.147h23.888v4.949h-17.187v7.424h15.512v4.949h-15.512v8.747h17.427v5.077h-24.128z"></path>
<path fill="#fbfbfb" style="fill: var(--color1, #fbfbfb)" d="M347.496 32c-8.904 0-14.267-4.309-14.267-10.709h7.661c-0.096 3.627 2.584 5.632 6.605 5.632 4.261 0 6.269-1.493 6.269-3.712s-1.723-3.157-7.851-4.651c-5.6-1.365-11.728-2.987-11.728-9.387 0-5.077 4.979-9.173 12.829-9.173 8.091 0 13.261 4.053 13.261 9.771h-7.421c-0.048-3.029-2.344-4.693-5.84-4.693-3.397 0-5.648 1.536-5.648 3.584 0 2.432 1.867 3.2 6.749 4.437 7.229 1.792 13.069 2.517 13.069 9.472 0 5.589-5.696 9.429-13.691 9.429z"></path>
<path fill="#fbfbfb" style="fill: var(--color1, #fbfbfb)" d="M372.099 31.573v-26.069h-10.579v-5.077h27.813v5.077h-10.531v26.069h-6.704z"></path>
</symbol>
<symbol id="icon-burger-close" viewBox="0 0 32 32">
<path fill="none" stroke="#fbfbfb" style="stroke: var(--color1, #fbfbfb)" stroke-linejoin="round" stroke-linecap="round" stroke-miterlimit="4" stroke-width="3" d="M24 8l-16 16"></path>
<path fill="none" stroke="#fbfbfb" style="stroke: var(--color1, #fbfbfb)" stroke-linejoin="round" stroke-linecap="round" stroke-miterlimit="4" stroke-width="3" d="M8 8l16 16"></path>
</symbol>
<symbol id="icon-burger-open" viewBox="0 0 32 32">
<path fill="none" stroke="#fbfbfb" style="stroke: var(--color1, #fbfbfb)" stroke-linejoin="round" stroke-linecap="round" stroke-miterlimit="4" stroke-width="3" d="M5.333 8h21.333M5.333 16h10.667M5.333 24h21.333"></path>
</symbol>
<symbol id="icon-logo" viewBox="0 0 32 32">
<path fill="#fbfbfb" style="fill: var(--color1, #fbfbfb)" d="M29.082 0.314h-4.009c-1.237 0-2.24 0.983-2.24 2.195v3.929c0 1.212 1.003 2.195 2.24 2.195h4.009c1.237 0 2.24-0.983 2.24-2.195v-3.929c0-1.212-1.003-2.195-2.24-2.195z"></path>
<path fill="#fbfbfb" style="fill: var(--color1, #fbfbfb)" d="M6.73 23.040h-4.318c-1.332 0-2.412 0.983-2.412 2.195v3.929c0 1.213 1.080 2.195 2.412 2.195h4.318c1.332 0 2.412-0.983 2.412-2.195v-3.929c0-1.212-1.080-2.195-2.412-2.195z"></path>
<path fill="#fbfbfb" style="fill: var(--color1, #fbfbfb)" d="M6.25 11.582h-4.009c-1.237 0-2.24 0.983-2.24 2.195v3.929c0 1.212 1.003 2.195 2.24 2.195h4.009c1.237 0 2.24-0.983 2.24-2.195v-3.929c0-1.212-1.003-2.195-2.24-2.195z"></path>
<path fill="#fbfbfb" style="fill: var(--color1, #fbfbfb)" d="M17.766 22.978h-4.009c-1.237 0-2.24 0.983-2.24 2.195l-0 3.929c0 1.212 1.003 2.195 2.241 2.195h4.009c1.237 0 2.24-0.983 2.24-2.195v-3.929c0-1.213-1.003-2.195-2.24-2.195z"></path>
<path fill="#fbfbfb" style="fill: var(--color1, #fbfbfb)" d="M6.25 0.086h-4.009c-1.237 0-2.24 0.983-2.24 2.195v3.929c0 1.212 1.003 2.195 2.24 2.195h4.009c1.237 0 2.24-0.983 2.24-2.195v-3.929c0-1.212-1.003-2.195-2.24-2.195z"></path>
<path fill="#fbfbfb" style="fill: var(--color1, #fbfbfb)" d="M18.076 11.697h-4.009c-1.237 0-2.24 0.983-2.24 2.195v3.929c0 1.212 1.003 2.195 2.24 2.195h4.009c1.237 0 2.24-0.983 2.24-2.195v-3.929c0-1.212-1.003-2.195-2.24-2.195z"></path>
<path fill="#fbfbfb" style="fill: var(--color1, #fbfbfb)" d="M29.333 22.978h-4.010c-1.237 0-2.24 0.983-2.24 2.195v3.929c0 1.212 1.003 2.195 2.24 2.195h4.009c1.237 0 2.24-0.983 2.24-2.195v-3.929c0-1.213-1.003-2.195-2.24-2.195z"></path>
<path fill="#fbfbfb" style="fill: var(--color1, #fbfbfb)" d="M17.591 0.224h-4.009c-1.237 0-2.24 0.983-2.24 2.195v3.929c0 1.212 1.003 2.195 2.24 2.195h4.009c1.237 0 2.24-0.984 2.24-2.196v-3.929c0-1.212-1.003-2.195-2.24-2.195z"></path>
<path fill="#fbfbfb" style="fill: var(--color1, #fbfbfb)" d="M29.044 11.926h-4.010c-1.237 0-2.24 0.983-2.24 2.195v3.929c0 1.212 1.003 2.195 2.24 2.195h4.009c1.237 0 2.24-0.983 2.24-2.195v-3.929c0-1.212-1.003-2.195-2.24-2.195z"></path>
</symbol>
<symbol id="icon-Ellipse-36" viewBox="0 0 32 32">
<path fill="#7a3145" style="fill: var(--color1, #7a3145)" d="M28.923 16c0 7.137-5.786 12.923-12.923 12.923s-12.923-5.786-12.923-12.923c0-7.137 5.786-12.923 12.923-12.923s12.923 5.786 12.923 12.923z"></path>
<path fill="none" stroke="#7a3145" style="stroke: var(--color1, #7a3145)" stroke-linejoin="miter" stroke-linecap="butt" stroke-miterlimit="4" stroke-width="3.0769" d="M30.462 16c0 7.987-6.475 14.462-14.462 14.462s-14.462-6.475-14.462-14.462c0-7.987 6.475-14.462 14.462-14.462s14.462 6.475 14.462 14.462z"></path>
</symbol>
</defs>
</svg>
